<?xml version="1.0" encoding="UTF-8" standalone="no"?>
<svg
   xmlns:dc="http://purl.org/dc/elements/1.1/"
   xmlns:cc="http://creativecommons.org/ns#"
   xmlns:rdf="http://www.w3.org/1999/02/22-rdf-syntax-ns#"
   xmlns:svg="http://www.w3.org/2000/svg"
   xmlns="http://www.w3.org/2000/svg"
   xmlns:sodipodi="http://sodipodi.sourceforge.net/DTD/sodipodi-0.dtd"
   xmlns:inkscape="http://www.inkscape.org/namespaces/inkscape"
   version="1.1"
   id="Layer_1"
   x="0px"
   y="0px"
   width="733.67389"
   height="666.42377"
   viewBox="0 0 733.67389 666.42377"
   enable-background="new 0 0 400 400"
   xml:space="preserve"
   sodipodi:docname="hexagona_bgl.svg"
   inkscape:version="0.92.3 (2405546, 2018-03-11)"><metadata
   id="metadata9"><rdf:RDF><cc:Work
       rdf:about=""><dc:format>image/svg+xml</dc:format><dc:type
         rdf:resource="http://purl.org/dc/dcmitype/StillImage" /><dc:title></dc:title></cc:Work></rdf:RDF></metadata><defs
   id="defs7" /><sodipodi:namedview
   pagecolor="#ffffff"
   bordercolor="#666666"
   borderopacity="1"
   objecttolerance="10"
   gridtolerance="10"
   guidetolerance="10"
   inkscape:pageopacity="0"
   inkscape:pageshadow="2"
   inkscape:window-width="1920"
   inkscape:window-height="1027"
   id="namedview5"
   showgrid="false"
   inkscape:zoom="0.59"
   inkscape:cx="190.56575"
   inkscape:cy="473.88984"
   inkscape:window-x="-8"
   inkscape:window-y="-8"
   inkscape:window-maximized="1"
   inkscape:current-layer="Layer_1" />
<polygon opacity="0.7"
   stroke-miterlimit="10"
   points="100,370 10,200 100,30 300,30 390,200 300,370 "
   id="polygon2"
   style="fill:#2a2a2a;stroke:#000000;stroke-miterlimit:10"
   transform="translate(2.4301517,-14.245762)" />
    <polygon opacity="0.6"
   transform="translate(327.85388,278.97459)"
   style="fill:#2a2a2a;stroke:#000000;stroke-miterlimit:10"
   stroke-miterlimit="10"
   points="100,370 10,200 100,30 300,30 390,200 300,370 "
   id="polygon2-3" />



<polygon opacity="0.5"
   transform="matrix(0.5,0,0,0.5,168.53185,467.61864)"
   style="fill:#2a2a2a;stroke:#000000;stroke-miterlimit:10"
   stroke-miterlimit="10"
   points="100,30 300,30 390,200 300,370 100,370 10,200 "
   id="polygon2-7" />
    <polygon opacity="0.5"
   transform="matrix(0.5,0,0,0.5,456.0144,107.19493)"
   style="fill:#2a2a2a;stroke:#000000;stroke-miterlimit:10"
   stroke-miterlimit="10"
   points="100,30 300,30 390,200 300,370 100,370 10,200 "
   id="polygon2-7-9" />




    <polygon opacity="0.3"
   transform="matrix(0.30615339,0,0,0.30615339,369.66543,52.489671)"
   style="fill:#2a2a2a;stroke:#000000;stroke-miterlimit:10"
   stroke-miterlimit="10"
   points="100,30 300,30 390,200 300,370 100,370 10,200 "
   id="polygon2-7-6" />
    <polygon opacity="0.2"
   transform="matrix(0.30615339,0,0,0.30615339,108.99608,368.59136)"
   style="fill:#2a2a2a;stroke:#000000;stroke-miterlimit:10"
   stroke-miterlimit="10"
   points="100,370 10,200 100,30 300,30 390,200 300,370 "
   id="polygon2-7-6-4" />

</svg>