<?xml version="1.0" encoding="utf-8"?>
<!DOCTYPE svg PUBLIC "-//W3C//DTD SVG 1.1//EN" "http://www.w3.org/Graphics/SVG/1.1/DTD/svg11.dtd">
<svg version="1.1" xmlns="http://www.w3.org/2000/svg" xmlns:xlink="http://www.w3.org/1999/xlink" x="0px" y="0px" width="600px"
	 height="1000px" viewBox="0 0 600 1000" enable-background="new 0 0 600 1000" xml:space="preserve">
<g id="Layer_2" display="none">
	<rect y="1.667" display="inline" fill="#A20000" width="300" height="1000"/>
	<polygon display="inline" fill="#272727" points="600,1000 300,1000 300,466.846 300,451.021 300,0 600,0 	"/>
</g>
<g id="Layer_1">
	<g id="Layer_1_copy">
		<path fill="#272727" d="M299.999,548.868c-36.624,27.885-72.448,64.142-72.448,100.784c0-74.957-74.957-149.913-150.018-149.913
			c75.061,0,126.726-116.559,148.838-149.914c74.957-137.638,73.779-224.973,73.779-224.973s0,357.741,0,224.974
			c0-132.767-95.436,70.243-105.561,109.506c-11.94,46.298-18.192,89.581,49.56,88.548c15.776-0.24,37.924-6.617,55.85-14.913
			L299.999,548.868z"/>
		<path fill="#272727" d="M220.885,499.753c0,0,40.304-18.878,79.115-48.732v15.826c-31.564,14.238-47.602,32.974,0,32.907
			C374.205,499.648,220.885,499.753,220.885,499.753z"/>
	</g>
	<g id="Layer_1_copy_1_">
		<path fill="#A20000" d="M300,451.021c36.624-27.886,72.447-64.527,72.447-101.168c0,74.957,74.957,149.913,150.02,149.913
			c-75.063,0-126.576,116.558-148.689,149.913c-74.957,137.639-73.628,224.975-73.628,224.975s0-357.74,0-224.975
			c0,132.77,95.286-70.242,105.411-109.506c11.939-46.299,18.117-89.582-49.635-88.549c-15.795,0.241-37.982,6.913-55.926,15.223
			L300,451.021z"/>
		<path fill="#A20000" d="M377.815,499.753c0,0-39.409,19.809-77.816,49.115l0-15.9c30.824-14.186,46.979-33.28,0-33.215
			C225.796,499.857,377.815,499.753,377.815,499.753z"/>
	</g>
</g>
</svg>
