<?xml version="1.0" encoding="utf-8"?>
<!DOCTYPE svg PUBLIC "-//W3C//DTD SVG 1.1//EN" "http://www.w3.org/Graphics/SVG/1.1/DTD/svg11.dtd">
<svg version="1.1" xmlns="http://www.w3.org/2000/svg" xmlns:xlink="http://www.w3.org/1999/xlink" x="0px" y="0px" width="223px"
	 height="550px" viewBox="0 0 223 550" enable-background="new 0 0 223 550" xml:space="preserve">
	<g id="logo_right">
		<path fill="#A20000" d="M0.001,100.148C36.625,72.262,72.448,36.641,72.448,0c0,74.957,75.49,150.148,150.553,150.148 c-75.063,0-127.109,116.322-149.223,149.678C-1.179,437.464,0.15,524.801,0.15,524.801V299.826 c0,132.77,95.286-70.242,105.411-109.506c11.939-46.299,18.117-89.582-49.635-88.549c-15.795,0.241-37.982,7.067-55.926,15.377 L0.001,100.148z"/>
		<path fill="#A20000" d="M78.001,150.148c0,0-39.594,20.693-78.001,50l0-17c30.824-14.186,46.979-33.065,0-33H78.001z"/>
	</g>
</svg>
