<?xml version="1.0" encoding="utf-8"?>
<!DOCTYPE svg PUBLIC "-//W3C//DTD SVG 1.1//EN" "http://www.w3.org/Graphics/SVG/1.1/DTD/svg11.dtd">
<svg version="1.1" xmlns="http://www.w3.org/2000/svg" xmlns:xlink="http://www.w3.org/1999/xlink" x="0px" y="0px" width="600px"
	 height="1000px" viewBox="0 0 600 1000" enable-background="new 0 0 600 1000" xml:space="preserve">
<g id="background">
	<rect fill="#A20000" width="300" height="1000"/>
	<rect x="300" fill="#272727" width="300" height="1000"/>
</g>
	<g id="outerlayer">
		<path fill="#272727" stroke="#272727" stroke-miterlimit="10" d="M302.755,499.753c75.061,0,75.061,0.104,75.061,0.104
			s-149.914,74.956-149.914,149.913c0-74.957-74.957-149.913-150.018-149.913c75.061,0,126.726-116.559,148.838-149.914
			C301.679,212.306,300.5,124.971,300.5,124.971s0,357.741,0,224.974c0-132.767-95.435,70.243-105.56,109.506
			C183,505.75,176.748,549.033,244.5,548c42.719-0.651,132.164-48.351,57.96-48.247c-74.204,0.104,75.208,0.104,75.208,0.104
			S227.695,499.753,302.755,499.753z"/>
		<path fill="#A20000" stroke="#A20000" stroke-miterlimit="10" d="M295.945,499.987c-75.06,0-75.06-0.104-75.06-0.104
			s149.913-74.956,149.913-149.913c0,74.957,74.957,149.913,150.019,149.913c-75.062,0-126.576,116.559-148.688,149.913
			C297.171,787.436,298.5,874.771,298.5,874.771s0-357.739,0-224.974c0,132.769,95.285-70.243,105.41-109.507
			c11.939-46.299,18.118-89.582-49.635-88.549c-42.72,0.65-132.201,48.351-57.999,48.246c74.206-0.104-75.226-0.104-75.226-0.104
			S371.006,499.987,295.945,499.987z"/>
	</g>
	<g id="innerlayer">
		<path fill="#A20000" d="M302.755,499.753c75.061,0,75.061,0.104,75.061,0.104s-39.409,19.704-77.816,49.011l0-15.9
			c30.824-14.186,49.439-33.28,2.46-33.215c-74.204,0.104,75.208,0.104,75.208,0.104S227.695,499.753,302.755,499.753z"/>
		<path fill="#272727" stroke="#272727" stroke-miterlimit="10" d="M295.945,499.987c-75.06,0-75.06-0.104-75.06-0.104
			s40.304-20.151,79.115-50.006l0,16.333c-31.564,14.238-51.325,33.845-3.723,33.778c74.206-0.104-75.226-0.104-75.226-0.104
			S371.006,499.987,295.945,499.987z"/>
	</g>
</svg>
